<svg height="512" viewBox="0 0 51 60" width="512" xmlns="http://www.w3.org/2000/svg"><g id="Page-1" fill="none" fill-rule="evenodd"><g id="018---Roll-On" fill-rule="nonzero"><g id="Icons_copy" transform="translate(1 1)"><path id="Shape" d="m23.77 15h-21.54c-.57084692-.0034654-1.11596883.2371693-1.49806338.6612943-.38209454.4241249-.56474146.9913136-.50193662 1.5587057l.09.79c.83421666 7.8122256 1.25147511 15.6633605 1.25 23.52 0 3.79-.1 7.56-.29 11.21-.07136531 1.3705289.42374224 2.7101427 1.36927027 3.7048381.94552804.9946955 2.25834533 1.5570187 3.63072973 1.5551619h13.45c2.7614237 0 5-2.2385763 5-5 0-.09 0-.18 0-.27-.5722285-11.5850373-.2378765-23.197082 1-34.73l.09-.79c.0609403-.5745877-.1295987-1.1474533-.5225498-1.5710737-.392951-.4236205-.94991-.6565942-1.5274502-.6389263zm-10.77 36c-3.31 0-6-5.37-6-12s2.69-12 6-12 6 5.37 6 12-2.69 12-6 12z" fill="#02a9f4"/><path id="Shape" d="m23.77 15h-3c.5708469-.0034654 1.1159688.2371693 1.4980634.6612943.3820945.4241249.5647414.9913136.5019366 1.5587057l-.09.79c-1.2378765 11.532918-1.5722285 23.1449627-1 34.73v.27c0 2.7614237-2.2385763 5-5 5h3c2.7614237 0 5-2.2385763 5-5 0-.09 0-.18 0-.27-.5722285-11.5850373-.2378765-23.197082 1-34.73l.09-.79c.0628048-.5673921-.1198421-1.1345808-.5019366-1.5587057-.3820946-.424125-.9272165-.6647597-1.4980634-.6612943z" fill="#0377bc"/><path id="Shape" d="m21 8h-16c0-4.418278 3.581722-8 8-8s8 3.581722 8 8z" fill="#f5f5f5"/><path id="Shape" d="m13 0c-.5037755-.00063986-1.006327.04961529-1.5.15 3.7687706.71940134 6.4961068 4.01318431 6.5 7.85h3c0-4.418278-3.581722-8-8-8z" fill="#cfd8dc"/><path id="Shape" d="m23 14.16v.84h-20v-.84c.00168796-2.0936048.33931309-4.17337558 1-6.16h18c.6606869 1.98662442.998312 4.0663952 1 6.16z" fill="#ffdc00"/><path id="Shape" d="m22 8h-3c.6606869 1.98662442.998312 4.0663952 1 6.16v.84h3v-.84c-.001688-2.0936048-.3393131-4.17337558-1-6.16z" fill="#fec108"/><path id="Shape" d="m49 54v2c0 1.1045695-.8954305 2-2 2h-16c-1.1045695 0-2-.8954305-2-2v-2z" fill="#00bcd4"/><path id="Shape" d="m46 54v2c0 1.1045695-.8954305 2-2 2h3c1.1045695 0 2-.8954305 2-2v-2z" fill="#00838f"/><path id="Shape" d="m49 49v5h-20v-5c0-5.5228475 4.4771525-10 10-10s10 4.4771525 10 10z" fill="#02a9f4"/><path id="Shape" d="m46.07 41.93c-1.8749273-1.8754937-4.4180519-2.9294336-7.07-2.93-.5022129.0043806-1.0034781.0444818-1.5.12 4.8850974.7411488 8.4966103 4.9390015 8.5 9.88v5h3v-5c-.0005664-2.6519481-1.0545063-5.1950727-2.93-7.07z" fill="#0377bc"/><ellipse id="Oval" cx="13" cy="39" fill="#00bcd4" rx="6" ry="12"/></g><g id="Layer_2"><g fill="#000"><path id="Shape" d="m27.75 18.33c.0920068-.8092676-.1489852-1.6211621-.6676155-2.2491764-.5186304-.6280142-1.2703173-1.0181636-2.0823845-1.0808236.0026217-2.1528082-.3348715-4.2925152-1-6.34-.1500511-.41744662-.5571758-.68614893-1-.66h-.06c-.5267237-4.53872145-4.3708173-7.96250301-8.94-7.96250301-4.56918267 0-8.41327631 3.42378156-8.94 7.96250301h-.06c-.42991591-.00110976-.81242788.27268828-.95.68-.68002907 2.0383779-1.03438077 4.1712376-1.05 6.32-.80998374.0603938-1.56086355.4466381-2.08102726 1.0704576-.5201637.6238195-.76515181 1.4318951-.67897274 2.2395424l.08.78c1.23585352 11.4795199 1.57021038 23.0382365 1 34.57-.0879125 1.645982.50520141 3.2556404 1.6400887 4.451055s2.71158496 1.871291 4.3599113 1.868945h13.41c1.6483263.002346 3.225024-.6735304 4.3599113-1.868945s1.7280012-2.805073 1.6400887-4.451055c-.5702104-11.5317635-.2358535-23.0904801 1-34.57zm-22.01-8.33h16.52c.475623 1.624663.7246412 3.3072179.74 5h-18c.01535883-1.6927821.26437696-3.375337.74-5zm8.26-8c3.4765822.00407452 6.4233474 2.55907331 6.92 6h-13.84c.49665255-3.44092669 3.4434178-5.99592548 6.92-6zm11.68 16.9c-1.2410465 11.5862376-1.5753963 23.2517004-1 34.89.0576605 1.09676-.338172 2.1689814-1.0946577 2.9651827-.7564858.7962013-1.8070687 1.246332-2.9053423 1.2448173h-13.41c-1.09827362.0015147-2.14885647-.448616-2.90534226-1.2448173s-1.1523182-1.8684227-1.09465774-2.9651827c.5803949-11.6382472.24603394-23.304101-1-34.89l-.08-.79c-.03140242-.283696.05992104-.5672904.25096831-.7793529.19104727-.2120624.46360823-.3323798.74903169-.3306471h21.58c.2854235-.0017327.5579844.1185847.7490317.3306471.1910473.2120625.2823707.4956569.2509683.7793529z"/><path id="Shape" d="m48 60c1.6568542 0 3-1.3431458 3-3v-7c0-6.0751322-4.9248678-11-11-11s-11 4.9248678-11 11v7c0 1.6568542 1.3431458 3 3 3zm-17-3v-1h3c.5522847 0 1-.4477153 1-1s-.4477153-1-1-1h-3v-4c0-4.9705627 4.0294373-9 9-9s9 4.0294373 9 9v4h-10c-.5522847 0-1 .4477153-1 1s.4477153 1 1 1h10v1c0 .5522847-.4477153 1-1 1h-16c-.5522847 0-1-.4477153-1-1z"/><path id="Shape" d="m14 27c-3.92 0-7 5.71-7 13s3.08 13 7 13 7-5.71 7-13-3.08-13-7-13zm0 24c-2.37 0-5-4.52-5-11s2.63-11 5-11 5 4.52 5 11-2.63 11-5 11z"/></g><path id="Shape" d="m36 48c-.0405933-.8074109.2624201-1.5942863.8340669-2.1659331s1.3585222-.8746602 2.1659331-.8340669c.5522847 0 1-.4477153 1-1s-.4477153-1-1-1c-1.3410933-.0510915-2.6427646.4592672-3.5917487 1.4082513s-1.4593428 2.2506554-1.4082513 3.5917487c0 .5522847.4477153 1 1 1s1-.4477153 1-1z" fill="#f5f5f5"/><path id="Shape" d="m9 20c0-.5522847-.44771525-1-1-1h-2c-.55228475 0-1 .4477153-1 1s.44771525 1 1 1h2c.55228475 0 1-.4477153 1-1z" fill="#f5f5f5"/><path id="Shape" d="m22 19h-10c-.5522847 0-1 .4477153-1 1s.4477153 1 1 1h10c.5522847 0 1-.4477153 1-1s-.4477153-1-1-1z" fill="#f5f5f5"/></g></g></g></svg>