<svg xmlns="http://www.w3.org/2000/svg" viewBox="0 0 433.34 511.6"><defs><style>.cls-1{fill:#57a7e6;}.cls-2{fill:#0a5fa2;}.cls-3{fill:#f5f5f5;}.cls-4{fill:#e2e0e0;}.cls-5{fill:#f2b1d3;}.cls-6{fill:#e366a7;}</style></defs><g id="Layer_2" data-name="Layer 2"><g id="Layer_1-2" data-name="Layer 1"><g id="Page-1"><g id="_018---Roll-On" data-name="018---Roll-On"><g id="Icons_copy" data-name="Icons copy"><path id="Shape" class="cls-1" d="M209.54,136.1H25.74A17,17,0,0,0,8.64,155l.8,6.7a1896.23,1896.23,0,0,1,10.7,200.7c0,32.3-.9,64.5-2.5,95.7A42.74,42.74,0,0,0,60.34,503h114.8a42.68,42.68,0,0,0,42.7-42.7V458a1905.4,1905.4,0,0,1,8.5-296.4l.8-6.7a17,17,0,0,0-4.5-13.4,17.51,17.51,0,0,0-13.1-5.4Zm-91.9,307.2c-28.2,0-51.2-45.8-51.2-102.4s23-102.4,51.2-102.4,51.2,45.8,51.2,102.4S145.84,443.3,117.64,443.3Z"/><path id="Shape-2" data-name="Shape" class="cls-2" d="M209.54,136.1h-25.6A17,17,0,0,1,201,155l-.8,6.7a1892.8,1892.8,0,0,0-8.5,296.4v2.3A42.68,42.68,0,0,1,149,503.1h25.6a42.68,42.68,0,0,0,42.7-42.7v-2.3a1905.4,1905.4,0,0,1,8.5-296.4l.8-6.7a17.09,17.09,0,0,0-4.3-13.3,17.8,17.8,0,0,0-12.8-5.6Z"/><path id="Shape-3" data-name="Shape" class="cls-3" d="M185.84,76.4H49.34a68.25,68.25,0,1,1,136.5,0Z"/><path id="Shape-4" data-name="Shape" class="cls-4" d="M117.64,8.1a61.1,61.1,0,0,0-12.8,1.3,68.26,68.26,0,0,1,55.5,67h25.6A68.39,68.39,0,0,0,117.64,8.1Z"/><path id="Shape-5" data-name="Shape" class="cls-5" d="M202.94,129v7.2H32.24V129a167.91,167.91,0,0,1,8.5-52.6h153.6A165.18,165.18,0,0,1,202.94,129Z"/><path id="Shape-6" data-name="Shape" class="cls-6" d="M194.44,76.4h-25.6a167.91,167.91,0,0,1,8.5,52.6v7.2h25.6V129A167.91,167.91,0,0,0,194.44,76.4Z"/><path id="Shape-7" data-name="Shape" class="cls-5" d="M424.84,468.9V486a17.09,17.09,0,0,1-17.1,17.1H271.24a17.09,17.09,0,0,1-17.1-17.1V468.9Z"/><path id="Shape-8" data-name="Shape" class="cls-6" d="M399.24,468.9V486a17.09,17.09,0,0,1-17.1,17.1h25.6a17.09,17.09,0,0,0,17.1-17.1V468.9Z"/><path id="Shape-9" data-name="Shape" class="cls-1" d="M424.84,426.3V469H254.14V426.3a85.35,85.35,0,0,1,170.7,0Z"/><path id="Shape-10" data-name="Shape" class="cls-2" d="M399.84,365.9a85.31,85.31,0,0,0-60.3-25,90.79,90.79,0,0,0-12.8,1,85.21,85.21,0,0,1,72.5,84.3v42.7h25.6V426.2A85.31,85.31,0,0,0,399.84,365.9Z"/><ellipse id="Oval" class="cls-5" cx="117.64" cy="340.9" rx="51.2" ry="102.4"/></g><g id="Layer_2-2" data-name="Layer 2"><path id="Shape-11" data-name="Shape" d="M234.94,156a25.72,25.72,0,0,0-5.7-19.2,25.17,25.17,0,0,0-17.8-9.2,177.32,177.32,0,0,0-8.5-54.1,8.4,8.4,0,0,0-8.5-5.6h-.5a76.82,76.82,0,0,0-152.6,0h-.5a8.5,8.5,0,0,0-8.1,5.8,176.57,176.57,0,0,0-9,53.9,25.83,25.83,0,0,0-17.8,9.1,25.43,25.43,0,0,0-5.8,19.1l.7,6.7a1887.48,1887.48,0,0,1,8.5,295,51.13,51.13,0,0,0,51.2,53.9h114.4a51.13,51.13,0,0,0,51.2-53.9,1887.48,1887.48,0,0,1,8.5-295ZM47.14,84.9h141a154.29,154.29,0,0,1,6.3,42.7H40.84A154.84,154.84,0,0,1,47.14,84.9Zm70.5-68.2a59.74,59.74,0,0,1,59.1,51.2H58.54A59.74,59.74,0,0,1,117.64,16.7Zm99.6,144.2a1909.75,1909.75,0,0,0-8.5,297.7,34,34,0,0,1-34.1,35.9H60.14a34.18,34.18,0,0,1-24.8-10.6A33.83,33.83,0,0,1,26,458.6a1897.21,1897.21,0,0,0-8.5-297.7l-.7-6.7a8.74,8.74,0,0,1,2.1-6.7,8.63,8.63,0,0,1,6.4-2.8h184.1a8.63,8.63,0,0,1,6.4,2.8,8.5,8.5,0,0,1,2.1,6.7Z"/><path id="Shape-12" data-name="Shape" d="M407.74,511.6a25.65,25.65,0,0,0,25.6-25.6V426.3a93.9,93.9,0,1,0-187.8,0V486a25.65,25.65,0,0,0,25.6,25.6ZM262.64,486v-8.5h25.6a8.5,8.5,0,0,0,0-17h-25.6V426.4a76.8,76.8,0,0,1,153.6,0v34.1h-85.3a8.5,8.5,0,0,0,0,17h85.3V486a8.49,8.49,0,0,1-8.5,8.5H271.24A8.58,8.58,0,0,1,262.64,486Z"/><path id="Shape-13" data-name="Shape" d="M117.64,230c-33.5,0-59.7,48.7-59.7,110.9s26.3,110.9,59.7,110.9,59.7-48.7,59.7-110.9S151,230,117.64,230Zm0,204.8c-20.2,0-42.7-38.6-42.7-93.9s22.4-93.9,42.7-93.9,42.7,38.6,42.7,93.9S137.84,434.8,117.64,434.8Z"/><path id="Shape-14" data-name="Shape" class="cls-3" d="M305.34,409.2a24.54,24.54,0,0,1,7.1-18.5,24.17,24.17,0,0,1,18.5-7.1,8.5,8.5,0,0,0,0-17,41.07,41.07,0,0,0-42.6,42.6,8.5,8.5,0,0,0,17,0Z"/><path id="Shape-15" data-name="Shape" class="cls-3" d="M74.94,170.3a8.49,8.49,0,0,0-8.5-8.5H49.34a8.5,8.5,0,0,0,0,17h17.1A8.49,8.49,0,0,0,74.94,170.3Z"/><path id="Shape-16" data-name="Shape" class="cls-3" d="M185.84,161.7h-85.3a8.5,8.5,0,0,0,0,17h85.3a8.5,8.5,0,0,0,0-17Z"/></g></g></g></g></g></svg>