<svg xmlns="http://www.w3.org/2000/svg" viewBox="0 0 480 480"><defs><style>.cls-1{fill:#57a7e6;}.cls-2{fill:#fff;}.cls-3{fill:#e8e8e8;}</style></defs><g id="Layer_2" data-name="Layer 2"><g id="Layer_1-2" data-name="Layer 1"><path class="cls-1" d="M176,72H344V40C344,57.7,268.8,72,176,72Z"/><path class="cls-2" d="M344,72H176C83.2,72,8,57.7,8,40V440c0,17.7,67.2,32,160,32H472V72Z"/><ellipse class="cls-3" cx="176" cy="40" rx="168" ry="32"/><path d="M104,32H248V48H104Z"/><path d="M160,104h16v16H160Z"/><path d="M160,296h16v16H160Z"/><path d="M160,328h16v16H160Z"/><path d="M160,360h16v16H160Z"/><path d="M160,392h16v16H160Z"/><path d="M160,424h16v16H160Z"/><path d="M472,64H352V40C352,.5,183.2,0,176,0S0,.5,0,40V440c0,38.9,150.8,40,168,40H472a8,8,0,0,0,8-8V72A8,8,0,0,0,472,64ZM322.2,64A94.61,94.61,0,0,0,336,58.6V64ZM176,16c97.3,0,153.9,15.1,159.8,24-5.9,8.9-62.5,24-159.8,24S22.1,48.9,16.2,40C22.1,31.1,78.7,16,176,16ZM464,464H176v-8H160v7.9C65.2,463.1,18.7,447.7,16,440V58.6C49.4,75.3,126.4,79,160,79.8V88h16V80H464Z"/><path d="M160,136h16v16H160Z"/><path d="M160,168h16v16H160Z"/><path d="M160,200h16v16H160Z"/><path d="M160,232h16v16H160Z"/><path d="M160,264h16v16H160Z"/></g></g></svg>