<svg id="Layer_1_1_" enable-background="new 0 0 64 64" height="512" viewBox="0 0 64 64" width="512" xmlns="http://www.w3.org/2000/svg"><path d="m24 11h21v-4c0 2.209-9.402 4-21 4z" fill="#f9ff1f"/><path d="m45 11h-21c-11.598 0-21-1.791-21-4v50c0 2.209 8.402 4 20 4h38v-50z" fill="#fff"/><ellipse cx="24" cy="7" fill="#e8e8e8" rx="21" ry="4"/><path d="m15 6h18v2h-18z"/><path d="m22 15h2v2h-2z"/><path d="m22 39h2v2h-2z"/><path d="m22 43h2v2h-2z"/><path d="m22 47h2v2h-2z"/><path d="m22 51h2v2h-2z"/><path d="m22 55h2v2h-2z"/><path d="m61 10h-15v-3c0-4.943-21.102-5-22-5s-22 .057-22 5v50c0 4.859 18.851 5 21 5h38c.553 0 1-.447 1-1v-50c0-.553-.447-1-1-1zm-18.722 0c.638-.206 1.221-.431 1.722-.681v.681zm-18.278-6c12.166 0 19.239 1.89 19.975 3-.736 1.11-7.809 3-19.975 3s-19.239-1.89-19.975-3c.736-1.11 7.809-3 19.975-3zm36 56h-36v-1h-2v.99c-11.854-.105-17.663-2.023-18-2.99v-47.681c4.181 2.092 13.8 2.552 18 2.653v1.028h2v-1h36z"/><path d="m22 19h2v2h-2z"/><path d="m22 23h2v2h-2z"/><path d="m22 27h2v2h-2z"/><path d="m22 31h2v2h-2z"/><path d="m22 35h2v2h-2z"/></svg>