<svg xmlns="http://www.w3.org/2000/svg" viewBox="0 0 473.76 480"><defs><style>.cls-1{fill:#57a7e6;}.cls-2{fill:#f2b1d3;}.cls-3{fill:#0a5fa2;}.cls-4{fill:#e366a7;}.cls-5{fill:#fff;}.cls-6{fill:#318cd4;}.cls-7{fill:#e2e0e0;}</style></defs><g id="Layer_2" data-name="Layer 2"><g id="Layer_1-2" data-name="Layer 1"><path class="cls-1" d="M153.76,40v88h16v32c11,13.8,21.4,27.1,30.4,41,36.9,56.6,43,126.5,25.7,190.9-.8,3-1.6,6.1-2.5,9.1l-14.3,47-3.9,12.7a16,16,0,0,1-15.3,11.3h188.8a24.9,24.9,0,0,1-24.9-24.9,779,779,0,0,1,26.8-202.6L409.76,96V40Zm160,72h-96a16,16,0,0,1,0-32h96a16,16,0,0,1,0,32Z"/><path class="cls-2" d="M169.76,128h-96v32h96Z"/><path class="cls-3" d="M439,244.5,409.76,96l-29.2,148.5a778.47,778.47,0,0,0-26.8,202.6,24.9,24.9,0,0,0,24.9,24.9h62.2a24.9,24.9,0,0,0,24.9-24.9A778.47,778.47,0,0,0,439,244.5Z"/><path class="cls-4" d="M89.76,96h64v32h-64Z"/><path class="cls-5" d="M223.36,401c.9-3,1.7-6.1,2.5-9.1l-.1.1.1-.1c17.2-64.4,11.1-134.3-25.7-190.9-9.1-13.9-19.4-27.3-30.4-41h-96c-13,16.3-27.8,31.1-37.3,49.9a277.42,277.42,0,0,0-22.3,60.4c-10.4,43.5-7,88.2,6,130.7l14.3,47h174.6ZM80.06,424.9a32.8,32.8,0,0,1-26.5-23.2l-9.8-34.2a159.32,159.32,0,0,1,7.4-108.8l3.3-7.6a32.63,32.63,0,0,1,60.7,23.8,159.68,159.68,0,0,0-2.4,96l3.6,12.6a32.65,32.65,0,0,1-36.3,41.4Zm65.5-125.4c-3.2-30.8,8.5-57.2,26.1-59s34.4,21.7,37.6,52.4-8.5,57.2-26.1,59S148.76,330.2,145.56,299.5Z"/><path class="cls-2" d="M205.16,460.7l3.9-12.7H34.46l3.9,12.7A16,16,0,0,0,53.66,472h136.2A15.9,15.9,0,0,0,205.16,460.7Z"/><path class="cls-3" d="M209.26,292.9c-3.2-30.8-20-54.2-37.6-52.4s-29.3,28.2-26.1,59,20,54.2,37.6,52.4S212.46,323.7,209.26,292.9Z"/><path class="cls-3" d="M153.76,8h256V40h-256Z"/><path class="cls-5" d="M329.76,96a16,16,0,0,0-16-16h-96a16,16,0,0,0,0,32h96A16,16,0,0,0,329.76,96Z"/><path class="cls-6" d="M153.76,40v88h16v32c11,13.8,21.4,27.1,30.4,41,36.9,56.6,43,126.5,25.7,190.9-.8,3-1.6,6.1-2.5,9.1l-14.3,47-3.9,12.7a16,16,0,0,1-15.3,11.3h48.3l13.4-44.1c1.2-3.9,2.2-7.7,3.2-11.6,22-82.3,14.2-171.6-32.9-243.9-10.8-16.6-23.2-32.7-36.3-49.1V40Z"/><path class="cls-5" d="M409.76,96V51.6c-43.7,132.4-133.9,232.1-176,244.4l-.1,1.1a259.93,259.93,0,0,1-7.8,94.8c3.1-2.2,104.2-75.2,167.5-212.6Z"/><path class="cls-7" d="M233.66,297a235.87,235.87,0,0,1,1.2,35.7v.1c-.2,3.9-.4,7.9-.7,11.8,0,.3-.1.6-.1.9-.3,3.6-.7,7.3-1.2,10.9-.1.9-.3,1.7-.4,2.6-.4,3.1-.9,6.2-1.4,9.2-.3,1.7-.7,3.4-1,5.1-.4,2.2-.8,4.5-1.3,6.7-.9,3.9-1.8,7.8-2.8,11.7v.2c1.2-.8,16.9-12.2,39.3-33.6a313.77,313.77,0,0,0-2.5-78.7c-11,8.4-20.9,14.1-29,16.4Z"/><path class="cls-7" d="M200.16,201c-5.9-9-12.4-17.8-19.2-26.7l1.8,2.7c36.9,56.6,43,126.5,25.7,190.9-.8,3-1.6,6.1-2.5,9.1a66.37,66.37,0,0,1-63.4,47H27.16l7.3,24h174.6l14.3-47c.9-3,1.7-6.1,2.5-9.1,17.3-64.4,11.2-134.3-25.7-190.9Z"/><path class="cls-2" d="M112.76,370.9a158.91,158.91,0,0,1,2.4-96,32.63,32.63,0,0,0-60.7-23.8l-3.3,7.6a159.32,159.32,0,0,0-7.4,108.8l9.9,34.2a32.69,32.69,0,0,0,62.8-18.2Z"/><path d="M181.26,360a24.37,24.37,0,0,0,2.7-.1c22.3-2.3,36.9-32.1,33.2-67.8s-24.2-61.9-46.4-59.6-36.9,32.1-33.2,67.8c3.6,34.2,22.5,59.7,43.7,59.7Zm-8.8-111.6h1c11.1,0,25,18,27.8,45.3,2.9,28.1-7.7,49-18.9,50.2-11.4,1.2-25.9-17.2-28.8-45.3S161.16,249.6,172.46,248.4Z"/><path d="M46,403.9a40.77,40.77,0,0,0,33,28.9,43.18,43.18,0,0,0,6.2.5,40.74,40.74,0,0,0,39-52l-3.6-12.6a151,151,0,0,1,2.2-91.2,40.59,40.59,0,0,0-75.5-29.6L44,255.5a167.28,167.28,0,0,0-7.7,114.3Zm12.5-142,3.3-7.5a24.63,24.63,0,0,1,43.6-2.8,24.54,24.54,0,0,1,2.2,20.8,166.79,166.79,0,0,0-2.5,100.8l3.6,12.6A24.7,24.7,0,0,1,81.16,417a24.69,24.69,0,0,1-20-17.5l-9.9-34.2A152.76,152.76,0,0,1,58.46,261.9Z"/><path d="M417.76,95.2V52.9a18.29,18.29,0,0,0,.8-2.5l-.8-.3V8a8,8,0,0,0-8-8h-256a8,8,0,0,0-8,8V88h-56a8,8,0,0,0-8,8v24h-8a8,8,0,0,0-8,8v29.1c-2.8,3.4-5.6,6.7-8.4,10.1-10.1,12-20.6,24.3-28.1,39.1a284.17,284.17,0,0,0-22.9,62.1c-10.2,42.7-8.1,88.1,6.1,134.9L30.66,463a23.82,23.82,0,0,0,23,17h387.2a32.93,32.93,0,0,0,32.9-32.9,782.31,782.31,0,0,0-27-204.1Zm-248,24.8h-8V48h240v2.3c-39.1,117.4-118.2,212.9-161.6,234.5-5-31.8-16.1-61.8-33.2-88.2-8.4-13-17.8-25.3-29.1-39.4V128A8.18,8.18,0,0,0,169.76,120Zm61.3,283.3c.7-2.2,1.2-4.4,1.8-6.6,14.4-10.5,85-65.3,142.3-166.2l-2.3,11.8a787.36,787.36,0,0,0-27.1,204.8,32.34,32.34,0,0,0,4.8,16.9H212.46c.1-.3.3-.7.4-1Zm155.5-230.5h0c-46.8,105.1-115.9,171.8-147.9,198.8a264.52,264.52,0,0,0,3.5-70.2c41.6-17.6,114.3-98.5,159.4-205.4ZM161.76,16h240V32h-240Zm-64,88h48v16h-48Zm64,32v16h-80V136Zm-134,262.7c-13.4-44-15.4-86.6-5.8-126.5a269.51,269.51,0,0,1,21.6-58.6c6.6-13.1,16-24.2,26-36,2.7-3.2,5.4-6.3,8-9.5h88.3c10.7,13.5,19.6,25.2,27.6,37.4,35.1,53.9,43.2,124.3,22.2,193.3L203.16,440H40.36Zm158,65.3H53.66a8.13,8.13,0,0,1-7.7-5.7l-.7-2.3h153l-.7,2.3A7.92,7.92,0,0,1,190,464Zm255.1,0h-23.1V280h-16V464h-23.1a16.94,16.94,0,0,1-16.9-16.9A774.64,774.64,0,0,1,388.36,246l21.4-108.6,21.5,109.1A770.9,770.9,0,0,1,457.76,447a17,17,0,0,1-16.9,17Z"/><path d="M217.76,120h96a24,24,0,0,0,0-48h-96a24,24,0,0,0,0,48Zm0-32h96a8,8,0,0,1,0,16h-96a8,8,0,0,1,0-16Z"/></g></g></svg>