<svg id="Layer_1_1_" enable-background="new 0 0 64 64" height="512" viewBox="0 0 64 64" width="512" xmlns="http://www.w3.org/2000/svg"><path d="m22 7v7 4h2v4c1.376 1.72 2.671 3.389 3.804 5.127 4.607 7.072 5.37 15.807 3.215 23.86-.102.38-.203.761-.317 1.138l-1.789 5.875-.482 1.582c-.256.842-1.033 1.418-1.913 1.418h23.598c-1.721 0-3.116-1.395-3.116-3.116 0-8.552 1.126-17.067 3.349-25.325l3.651-18.559v-5.55-1.45zm20 9h-12c-1.105 0-2-.895-2-2s.895-2 2-2h12c1.105 0 2 .895 2 2s-.895 2-2 2z" fill="#57a7e6"/><path d="m24 18h-2-8-2v4h12z" fill="#e366a7"/><path d="m57.651 32.559-3.651-18.559-3.651 18.559c-2.223 8.258-3.349 16.773-3.349 25.325 0 1.721 1.395 3.116 3.116 3.116h.884 3 3.884c1.721 0 3.116-1.395 3.116-3.116 0-8.552-1.126-17.067-3.349-25.325z" fill="#0a5fa2"/><path d="m14 14h8v4h-8z" fill="#e366a7"/><path d="m30.701 52.125c.115-.377.215-.758.317-1.138-.006.004-.018.013-.018.013s.012-.009.018-.013c2.155-8.052 1.392-16.788-3.215-23.86-1.132-1.738-2.427-3.407-3.803-5.127h-12c-1.627 2.034-3.481 3.893-4.665 6.241-1.204 2.388-2.163 4.944-2.783 7.545-1.296 5.433-.871 11.023.747 16.339l1.788 5.875h21.826zm-17.908 2.988c-1.576-.239-2.868-1.373-3.311-2.904l-1.237-4.274c-1.302-4.501-.976-9.318.922-13.602l.418-.944c.745-1.681 2.523-2.656 4.34-2.38 2.515.382 4.07 2.949 3.244 5.355-1.33 3.875-1.432 8.065-.294 12l.455 1.573c.83 2.865-1.589 5.624-4.537 5.176zm8.184-15.677c-.397-3.846 1.062-7.147 3.26-7.374 2.197-.227 4.301 2.707 4.698 6.552.397 3.846-1.062 7.147-3.26 7.374-2.197.227-4.301-2.707-4.698-6.552z" fill="#fff"/><path d="m28.431 59.582.482-1.582h-21.826l.482 1.582c.256.842 1.033 1.418 1.913 1.418h16.518.518c.88 0 1.657-.576 1.913-1.418z" fill="#f2b1d3"/><path d="m28.935 38.614c-.397-3.846-2.5-6.779-4.698-6.552-2.197.227-3.657 3.528-3.26 7.374s2.5 6.779 4.698 6.552 3.657-3.529 3.26-7.374z" fill="#0a5fa2"/><path d="m22 3h32v4h-32z" fill="#0a5fa2"/><path d="m44 14c0-1.105-.895-2-2-2h-12c-1.105 0-2 .895-2 2s.895 2 2 2h12c1.105 0 2-.895 2-2z" fill="#fff"/><path d="m22 7v7 4h2v4c1.376 1.72 2.671 3.389 3.804 5.127 4.607 7.072 5.37 15.807 3.215 23.86-.102.38-.203.761-.317 1.138l-1.789 5.875-.482 1.582c-.256.842-1.033 1.418-1.913 1.418h6.041l1.676-5.507c.147-.482.275-.968.405-1.454 2.754-10.289 1.779-21.451-4.108-30.487-1.356-2.081-2.898-4.086-4.533-6.138v-10.414z" fill="#318cd4"/><path d="m54 14v-5.55c-5.459 16.555-16.737 29.018-22 30.549l-.011.132c.421 3.936.068 7.975-.971 11.856.382-.273 13.02-9.401 20.934-26.576z" fill="#fff"/><path d="m31.989 39.131c.158 1.476.208 2.965.152 4.457v.007c-.019.491-.047.982-.089 1.472-.003.039-.008.078-.012.117-.04.454-.086.907-.144 1.36-.014.108-.033.216-.048.324-.054.386-.109.772-.176 1.156-.037.213-.084.425-.125.638-.055.281-.105.563-.167.843-.108.489-.227.977-.356 1.462-.002.007-.003.014-.005.021.147-.105 2.107-1.523 4.911-4.198.302-3.294.211-6.604-.307-9.841-1.373 1.055-2.609 1.757-3.622 2.051z" fill="#e2e0e0"/><path d="m27.804 27.127c-.736-1.13-1.546-2.231-2.397-3.335.075.112.154.222.228.335 4.607 7.072 5.37 15.807 3.215 23.86-.102.38-.203.761-.317 1.138-1.063 3.49-4.282 5.875-7.93 5.875h-14.429l.913 3h21.826l1.788-5.875c.115-.377.215-.758.317-1.138 2.155-8.052 1.393-16.788-3.214-23.86z" fill="#e2e0e0"/><path d="m16.877 48.365c-1.139-3.935-1.036-8.126.294-12 .826-2.406-.729-4.973-3.244-5.355-1.818-.276-3.596.699-4.34 2.38l-.418.944c-1.898 4.284-2.224 9.101-.922 13.602l1.237 4.274c.443 1.531 1.736 2.664 3.311 2.904 2.948.448 5.367-2.311 4.538-5.175z" fill="#f2b1d3"/><path d="m25.436 47c.113 0 .228-.006.342-.018 2.789-.288 4.612-4.009 4.152-8.471-.461-4.462-3.019-7.736-5.795-7.444-2.789.288-4.613 4.009-4.152 8.472.442 4.279 2.801 7.461 5.453 7.461zm-1.097-13.944c.042-.004.085-.006.128-.006 1.392 0 3.12 2.256 3.473 5.667.363 3.518-.957 6.131-2.368 6.277-1.43.144-3.238-2.144-3.601-5.66-.362-3.519.957-6.132 2.368-6.278z"/><path d="m8.521 52.487c.549 1.899 2.167 3.318 4.122 3.615.259.039.517.059.773.059 1.452 0 2.837-.62 3.814-1.734 1.149-1.31 1.546-3.092 1.061-4.766l-.455-1.573c-1.087-3.757-.991-7.698.279-11.397.49-1.429.322-2.989-.46-4.28-.783-1.291-2.087-2.162-3.58-2.388-2.259-.342-4.48.876-5.405 2.963l-.418.944c-1.99 4.492-2.333 9.565-.968 14.285zm1.561-17.749.417-.943c.561-1.266 1.91-2.001 3.277-1.796.904.137 1.695.665 2.169 1.447s.576 1.729.279 2.594c-1.404 4.09-1.511 8.448-.309 12.603l.455 1.573c.294 1.016.053 2.097-.644 2.892-.697.794-1.733 1.176-2.784 1.016-1.186-.18-2.167-1.041-2.501-2.193l-1.236-4.273c-1.234-4.268-.923-8.856.877-12.92z"/><path d="m55 13.903v-5.29c.034-.103.07-.204.103-.307l-.103-.033v-1.273-4c0-.552-.448-1-1-1h-32c-.552 0-1 .448-1 1v4 6h-7c-.552 0-1 .448-1 1v3h-1c-.552 0-1 .448-1 1v3.639c-.345.423-.694.843-1.047 1.259-1.267 1.496-2.578 3.042-3.511 4.892-1.274 2.529-2.238 5.141-2.863 7.763-1.273 5.34-1.017 11.014.763 16.862l2.27 7.458c.387 1.273 1.54 2.127 2.87 2.127h16.518.518 23.598.884 6.884c2.269 0 4.116-1.847 4.116-4.116 0-8.638-1.139-17.246-3.369-25.518zm-31 3.097h-1v-3-6h30v.286c-4.883 14.674-14.779 26.607-20.203 29.317-.62-3.974-2.008-7.726-4.155-11.022-1.055-1.619-2.23-3.159-3.642-4.929v-3.652c0-.552-.448-1-1-1zm7.658 35.416c.083-.273.151-.547.228-.82 1.794-1.311 10.623-8.158 17.789-20.773l-.29 1.477c-2.246 8.338-3.385 16.946-3.385 25.584 0 .777.229 1.496.604 2.116h-17.266c.015-.043.036-.082.05-.126zm19.436-28.819-.008-.003c-5.84 13.139-14.473 21.477-18.474 24.86.542-2.965.683-5.917.434-8.777 5.198-2.208 14.286-12.314 19.935-25.679zm-28.094-19.597h30v2h-30zm-8 11h6v2h-6zm8 4v2h-10v-2zm-16.745 32.834c-1.675-5.505-1.921-10.826-.731-15.816.589-2.471 1.499-4.937 2.704-7.327.826-1.638 2.003-3.028 3.25-4.5.335-.396.67-.791.999-1.191h11.042c1.342 1.686 2.454 3.148 3.447 4.673 4.389 6.736 5.401 15.542 2.779 24.161l-1.573 5.166h-20.344zm19.745 8.166h-16.518c-.443 0-.828-.285-.957-.708l-.089-.292h19.127l-.089.291c-.128.424-.513.709-.956.709zm31.884 0h-2.884v-23h-2v23h-2-.884c-1.167 0-2.116-.949-2.116-2.116 0-8.462 1.115-16.896 3.331-25.132l2.669-13.572 2.684 13.64c2.201 8.168 3.316 16.601 3.316 25.064 0 1.167-.949 2.116-2.116 2.116z"/><path d="m30 17h12c1.654 0 3-1.346 3-3s-1.346-3-3-3h-12c-1.654 0-3 1.346-3 3s1.346 3 3 3zm0-4h12c.551 0 1 .449 1 1s-.449 1-1 1h-12c-.551 0-1-.449-1-1s.449-1 1-1z"/></svg>