<svg xmlns="http://www.w3.org/2000/svg" viewBox="0 0 451.31 512"><defs><style>.cls-1{fill:#57a7e6;}.cls-2{fill:#0a5fa2;}.cls-3{fill:#f3f1f4;}.cls-4{fill:#d1cfe8;}.cls-5{fill:#f2b1d3;}</style></defs><g id="Layer_2" data-name="Layer 2"><g id="Capa_1" data-name="Capa 1"><path class="cls-1" d="M409.94,27.59A30.05,30.05,0,0,0,381.61,7.51H270a29.82,29.82,0,0,0-6.37.7c-.76,1.39-15.68,9-37.63,98.48l20.28,288.07,175.59-10c11.41-44.25,21.94-101.05,21.94-163.61,0-98.82-21.81-159.35-33.86-193.56Z"/><path class="cls-2" d="M256.28,384.76a583.92,583.92,0,0,0,7.25-93.91c0-72.72-14.23-137.68-27.53-184.16,7.45-42.85,18.35-73.34,25.67-94.11a30.11,30.11,0,0,1,1.95-4.37,30,30,0,0,0-22,19.38c-12.06,34.21-33.87,94.74-33.87,193.56,0,69.87,13.14,132.58,26,178.62l92,10,92-10c1.34-4.82,2.69-9.84,4-15Z"/><path class="cls-3" d="M258.11,399.77l13.71,67.33,127.1-7.29c4.62-13.65,11.72-34.22,18.92-60Z"/><path class="cls-4" d="M275.94,454.59c-3.29-10.38-10.23-29.37-17.83-54.82H233.76c7.45,26.72,14.79,47.84,19.4,61.46a20,20,0,0,0,19,13.59H379.48a20,20,0,0,0,19-13.6q.22-.69.48-1.41H283.09a7.51,7.51,0,0,1-7.15-5.22Z"/><path class="cls-5" d="M370.25,225.23a44.46,44.46,0,0,1-88.91,0c0-22.85,14.81-50.33,38.91-81.45a7,7,0,0,1,11.09,0c24.11,31.12,38.91,58.6,38.91,81.45Z"/><path class="cls-1" d="M243.52,290.85c0-69.87-13.14-132.58-26-178.62l-175.44-10c-10.91,43.49-24.6,108.39-24.6,168.61,0,122.3,34.92,196,40.22,223.65l151.81-10,.11-.07c12-34.2,33.87-94.74,33.87-193.56Z"/><path class="cls-2" d="M66.15,478.38C56.57,448,27.52,384.89,27.52,270.84c0-60.22,9.76-115.12,20.66-158.61l-6.07-10-8.64,10c-12.83,46-26,108.75-26,178.62,0,98.82,21.81,159.35,33.86,193.56A30.06,30.06,0,0,0,69.7,504.5H181.32a30,30,0,0,0,28.3-20H74.49A8.72,8.72,0,0,1,66.15,478.38Z"/><path class="cls-3" d="M213.22,97.22c-5.88-19.67-11.36-35.48-15.07-46.44a20,20,0,0,0-19-13.6H71.83c-.38,0-.76,0-1.14,0,0,0-21.77,44.91-28.59,70Z"/><path class="cls-4" d="M213.22,97.22H52.11c6.82-25.09,13.68-45.56,18.58-60A20,20,0,0,0,52.87,50.78c-4.61,13.62-11.95,34.73-19.4,61.45H217.55q-2.19-7.83-4.33-15Z"/><path class="cls-5" d="M200.26,241.68,167.7,253.55a64.18,64.18,0,0,0-42.19,60.29V348.5l32.56-11.87a64.18,64.18,0,0,0,42.19-60.29Z"/><path class="cls-5" d="M50.76,241.68l32.56,11.87a64.17,64.17,0,0,1,42.19,60.29V348.5L93,336.63a64.18,64.18,0,0,1-42.19-60.29Z"/><path d="M181.32,512H69.7a37.62,37.62,0,0,1-35.41-25.1l-.48-1.36C21.17,449.67,0,389.65,0,290.85,0,183.1,31.08,91.59,44.35,52.52l1.41-4.14a27.49,27.49,0,0,1,26.07-18.7H95.49a7.51,7.51,0,0,1,0,15H71.83A12.5,12.5,0,0,0,60,53.18l-1.41,4.17c-.26.76-.53,1.54-.8,2.35H93.23a7.52,7.52,0,0,1,5.85,2.8c.07.09,10.24,12.21,26.43,12.21S151.85,62.62,152,62.5a7.49,7.49,0,0,1,5.85-2.8h35.45l-.79-2.35L191,53.18a12.5,12.5,0,0,0-11.85-8.49H125.51a7.51,7.51,0,0,1,0-15h53.68a27.49,27.49,0,0,1,26.07,18.7l1.41,4.15c2.8,8.23,6.23,18.33,9.94,30.14,5.94-23.47,12.4-41.78,17.49-56.2l.48-1.37A37.62,37.62,0,0,1,270,0H381.61A37.61,37.61,0,0,1,417,25.1l.49,1.37c12.64,35.87,33.81,95.89,33.81,194.68,0,107.75-31.08,199.26-44.36,238.33l-1.4,4.14a27.5,27.5,0,0,1-26.07,18.7H355.82a7.51,7.51,0,1,1,0-15h23.66a12.5,12.5,0,0,0,11.85-8.49l1.41-4.17c.26-.76.53-1.54.8-2.35H358.08a7.52,7.52,0,0,1-5.85-2.8c-.07-.09-10.24-12.21-26.43-12.21s-26.34,12.09-26.44,12.21a7.49,7.49,0,0,1-5.85,2.8H258.05c.27.79.53,1.57.79,2.32l1.42,4.2a12.5,12.5,0,0,0,11.85,8.49H325.8a7.51,7.51,0,0,1,0,15H272.11A27.5,27.5,0,0,1,246,463.62l-1.41-4.17c-2.66-7.82-6.12-18-9.91-30.06-5.92,23.28-12.41,41.68-17.51,56.14l-.48,1.37A37.62,37.62,0,0,1,181.32,512ZM39.22,119.75C27,164.76,15,224.77,15,290.85c0,96.23,20.63,154.74,33,189.69l.48,1.37A22.59,22.59,0,0,0,69.7,497H181.32a22.58,22.58,0,0,0,21.25-15.08l.49-1.37c12.32-35,32.95-93.47,32.95-189.69a624.28,624.28,0,0,0-12.49-121.48,7.5,7.5,0,0,1,14.72-2.93C246.72,209,251,250.88,251,290.85a586.37,586.37,0,0,1-8.35,101.41H412.09c12.18-45,24.21-105,24.21-171.11,0-96.22-20.63-154.73-33-189.69l-.48-1.37A22.59,22.59,0,0,0,381.61,15H270a22.57,22.57,0,0,0-21.25,15.08l-.49,1.37c-6.71,19-15.88,45-22.9,80.8q3,11,6.05,23.3a7.5,7.5,0,1,1-14.58,3.55q-2.41-9.93-4.9-19ZM361.33,437.29h37.23c2.86-8.7,6-18.77,9.31-30H243.7c3.27,11.24,6.45,21.25,9.33,30h37.23c5.12-5,17.54-15,35.54-15s30.41,10,35.53,15ZM43.43,104.74l164.28.32c-3.3-11.33-6.51-21.48-9.43-30.35H161c-5.11,5-17.54,15-35.53,15s-30.42-10-35.53-15H52.75C49.89,83.42,46.71,93.49,43.43,104.74ZM125.51,356a7.56,7.56,0,0,1-2.57-.45L90.38,343.68a71.9,71.9,0,0,1-47.12-67.34V241.68a7.5,7.5,0,0,1,10.07-7.05L85.89,246.5A71.8,71.8,0,0,1,125.51,282a71.84,71.84,0,0,1,39.62-35.51l32.56-11.87a7.5,7.5,0,0,1,10.07,7.05v34.66a71.9,71.9,0,0,1-47.12,67.34l-32.56,11.87a7.56,7.56,0,0,1-2.57.45ZM58.27,252.41v23.93a56.85,56.85,0,0,0,37.25,53.24L118,337.77V313.84a56.83,56.83,0,0,0-37.26-53.23ZM133,313.84v23.93l22.48-8.19a56.86,56.86,0,0,0,37.26-53.24V252.41l-22.49,8.2A56.83,56.83,0,0,0,133,313.84ZM325.8,277.19a52,52,0,0,1-52-52c0-23,12.86-50.38,40.48-86a14.52,14.52,0,0,1,23,0c27.61,35.67,40.48,63,40.48,86A52,52,0,0,1,325.8,277.19Zm0-128.32c-24.87,32.21-36.95,57.19-36.95,76.36a36.95,36.95,0,1,0,73.9,0C362.75,206.06,350.66,181.08,325.8,148.87Z"/></g></g></svg>