<svg id="Capa_1" enable-background="new 0 0 511.658 511.658" height="512" viewBox="0 0 511.658 511.658" width="512" xmlns="http://www.w3.org/2000/svg"><g><g><path d="m439.988 27.575c-4.235-12.019-15.567-20.075-28.311-20.075h-111.545c-2.174 0-4.301.251-6.365.7-.754 1.389-15.664 8.958-37.601 98.418l20.264 287.882 175.473-10c11.404-44.219 21.929-100.984 21.929-163.5 0-98.748-21.799-159.245-33.844-193.425z" fill="#d273b3"/><path d="m286.43 384.5c4.312-26.525 7.25-57.604 7.25-93.842 0-72.671-14.22-137.589-27.513-184.039 7.442-42.82 18.343-73.293 25.655-94.044.538-1.525 1.192-2.985 1.946-4.375-10.033 2.181-18.433 9.406-21.946 19.375-12.045 34.18-33.843 94.677-33.843 193.425 0 69.828 13.129 132.494 25.95 178.5l91.977 10 91.977-10c1.343-4.817 2.688-9.828 4.021-15z" fill="#ca59a6"/><path d="m288.26 399.5 13.704 67.29 127.012-7.29c4.625-13.639 11.716-34.199 18.906-60z" fill="#f3f1f4"/><path d="m306.086 454.289c-3.295-10.372-10.227-29.349-17.826-54.788h-24.332c7.443 26.708 14.781 47.806 19.387 61.419 2.747 8.121 10.369 13.581 18.942 13.581h107.296c8.578 0 16.196-5.463 18.945-13.589.156-.46.316-.934.478-1.411h-115.747c-3.262 0-6.155-2.104-7.143-5.212z" fill="#d1cfe8"/><path d="m400.329 225.076c0 24.535-19.889 44.424-44.424 44.424s-44.424-19.889-44.424-44.424c0-22.833 14.796-50.289 38.884-81.397 2.802-3.619 8.279-3.619 11.081 0 24.088 31.108 38.883 58.565 38.883 81.397z" fill="#94d8e6"/><path d="m273.68 290.658c0-69.828-13.13-132.494-25.95-178.5l-175.318-10c-10.902 43.462-24.586 108.322-24.586 168.5 0 122.224 34.896 195.849 40.191 223.5l151.714-10c.036-.025.069-.049.105-.074 12.045-34.179 33.844-94.677 33.844-193.426z" fill="#d273b3"/><path d="m96.429 478.057c-9.566-30.411-38.603-93.429-38.603-207.399 0-60.178 9.751-115.039 20.652-158.5l-6.067-10-8.635 10c-12.821 46.006-25.95 108.672-25.95 178.5 0 98.748 21.798 159.246 33.843 193.425 4.236 12.019 15.567 20.075 28.311 20.075h111.545c12.717 0 24.025-8.023 28.281-20h-135.044c-3.813 0-7.189-2.463-8.333-6.101z" fill="#ca59a6"/><path d="m243.4 97.158c-5.874-19.663-11.348-35.458-15.054-46.411-2.749-8.126-10.367-13.589-18.945-13.589-23.265 0-107.296 0-107.296 0-.381 0-.758.024-1.136.045 0 0-21.756 44.882-28.571 69.955z" fill="#f3f1f4"/><path d="m243.4 97.158h-161.002c6.815-25.073 13.675-45.528 18.571-59.955-8.108.459-15.182 5.78-17.809 13.544-4.605 13.613-11.943 34.708-19.384 61.411h183.954c-1.454-5.217-2.904-10.225-4.33-15z" fill="#d1cfe8"/><g fill="#94d8e6"><path d="m230.452 241.52-32.54 11.865c-25.315 9.23-42.159 33.301-42.159 60.245v34.636l32.54-11.865c25.315-9.23 42.159-33.301 42.159-60.245z"/><path d="m81.054 241.52 32.54 11.865c25.315 9.23 42.159 33.301 42.159 60.245v34.636l-32.54-11.865c-25.315-9.23-42.159-33.301-42.159-60.245z"/></g></g><g><path d="m211.525 511.658h-111.545c-15.878 0-30.098-10.08-35.384-25.083l-.481-1.363c-12.638-35.839-33.789-95.823-33.789-194.554 0-107.684 31.061-199.125 44.324-238.173l1.405-4.142c3.781-11.177 14.25-18.686 26.05-18.686h23.647c4.143 0 7.5 3.357 7.5 7.5s-3.357 7.5-7.5 7.5h-23.647c-5.364 0-10.122 3.413-11.841 8.492l-1.411 4.159c-.259.764-.524 1.545-.797 2.349h35.434c2.271 0 4.421 1.03 5.845 2.801.074.089 10.234 12.199 26.418 12.199 16.157 0 26.319-12.077 26.418-12.199 1.424-1.771 3.573-2.801 5.845-2.801h35.434c-.271-.798-.535-1.578-.795-2.343l-1.413-4.165c-1.719-5.079-6.477-8.492-11.841-8.492h-53.647c-4.143 0-7.5-3.357-7.5-7.5s3.357-7.5 7.5-7.5h53.646c11.8 0 22.269 7.509 26.05 18.686l1.407 4.147c2.796 8.231 6.224 18.322 9.936 30.128 5.938-23.458 12.391-41.756 17.473-56.17l.482-1.367c5.286-15.001 19.506-25.081 35.384-25.081h111.546c15.878 0 30.098 10.08 35.384 25.083l.484 1.373c12.637 35.839 33.786 95.823 33.786 194.544 0 107.684-31.061 199.125-44.324 238.173l-1.405 4.142c-3.781 11.177-14.25 18.686-26.05 18.686h-23.647c-4.143 0-7.5-3.357-7.5-7.5s3.357-7.5 7.5-7.5h23.647c5.364 0 10.122-3.413 11.841-8.492l1.411-4.159c.259-.764.524-1.545.797-2.349h-35.434c-2.271 0-4.421-1.029-5.845-2.8-.074-.09-10.235-12.2-26.418-12.2-16.157 0-26.319 12.077-26.418 12.199-1.424 1.771-3.573 2.801-5.845 2.801h-35.435c.268.789.53 1.563.788 2.32l1.42 4.188c1.719 5.079 6.477 8.492 11.841 8.492h53.648c4.143 0 7.5 3.357 7.5 7.5s-3.357 7.5-7.5 7.5h-53.648c-11.8 0-22.269-7.509-26.05-18.686l-1.414-4.17c-2.656-7.821-6.118-18.012-9.9-30.046-5.921 23.268-12.403 41.653-17.499 56.108l-.483 1.369c-5.287 15.002-19.508 25.082-35.385 25.082zm-142.008-391.993c-12.171 44.982-24.19 104.95-24.19 170.993 0 96.163 20.617 154.632 32.936 189.565l.481 1.366c3.176 9.013 11.711 15.068 21.237 15.068h111.545c9.526 0 18.062-6.056 21.238-15.068l.483-1.371c12.317-34.934 32.933-93.402 32.933-189.561 0-38.969-4.199-79.813-12.481-121.397-.81-4.063 1.828-8.012 5.891-8.82 4.062-.813 8.011 1.828 8.82 5.891 8.474 42.548 12.771 84.377 12.771 124.327 0 39.739-3.428 73.204-8.347 101.342h169.306c12.171-44.982 24.192-104.957 24.192-171 0-96.153-20.615-154.622-32.933-189.557l-.484-1.375c-3.176-9.012-11.711-15.068-21.237-15.068h-111.546c-9.526 0-18.062 6.056-21.237 15.067l-.482 1.37c-6.713 19.037-15.87 45.009-22.886 80.749 2.024 7.342 4.055 15.108 6.046 23.28.98 4.024-1.487 8.082-5.512 9.063-4.032.982-8.083-1.489-9.063-5.512-1.61-6.612-3.249-12.956-4.89-19.024zm321.898 317.335h37.205c2.854-8.699 6.035-18.76 9.307-30h-164.064c3.271 11.227 6.442 21.237 9.321 30h37.211c5.113-5.025 17.528-15 35.51-15 17.981 0 30.396 9.975 35.51 15zm-317.688-332.327 164.168.313c-3.295-11.319-6.508-21.461-9.421-30.327h-37.211c-5.113 5.025-17.528 15-35.51 15s-30.396-9.975-35.51-15h-37.205c-2.855 8.704-6.037 18.764-9.311 30.014zm82.026 251.093c-.87 0-1.739-.151-2.569-.454l-32.54-11.864c-28.166-10.269-47.09-37.312-47.09-67.291v-34.636c0-2.447 1.194-4.741 3.2-6.145 2.005-1.403 4.568-1.74 6.869-.901l32.54 11.864c17.585 6.411 31.566 19.358 39.59 35.479 8.023-16.12 22.005-29.067 39.59-35.479l32.54-11.864c2.303-.839 4.865-.502 6.869.901 2.006 1.403 3.2 3.697 3.2 6.145v34.636c0 29.979-18.924 57.022-47.09 67.291l-32.54 11.864c-.83.302-1.699.454-2.569.454zm-67.199-103.528v23.918c0 23.701 14.961 45.08 37.229 53.199l22.471 8.192v-23.917c0-23.701-14.961-45.08-37.229-53.199zm74.699 61.392v23.918l22.471-8.192c22.268-8.119 37.229-29.498 37.229-53.199v-23.918l-22.471 8.192c-22.268 8.119-37.229 29.498-37.229 53.199zm192.652-36.63c-28.632 0-51.925-23.293-51.925-51.924 0-23.022 12.854-50.346 40.454-85.989 2.766-3.573 6.946-5.623 11.47-5.623s8.705 2.05 11.472 5.624c27.599 35.643 40.453 62.966 40.453 85.988 0 28.631-23.293 51.924-51.924 51.924zm0-128.226c-24.846 32.184-36.925 57.146-36.925 76.302 0 20.359 16.564 36.924 36.925 36.924 20.359 0 36.924-16.564 36.924-36.924 0-19.156-12.079-44.119-36.924-76.302z"/></g></g></svg>