<svg xmlns="http://www.w3.org/2000/svg" viewBox="0 0 479.9 480"><defs><style>.cls-1{fill:#e8c8b3;}.cls-2{fill:#57a7e6;}.cls-3{fill:#f5d3bd;}.cls-4{fill:#e4e4e2;}.cls-5{fill:#a8a8a8;}.cls-6{fill:#0a5fa2;}.cls-7{fill:#63d5ee;}.cls-8{fill:#6ae4ff;}.cls-9{fill:#f2b1d3;}.cls-10{fill:#009cf7;}</style></defs><g id="Layer_2" data-name="Layer 2"><g id="Layer_1-2" data-name="Layer 1"><g id="filled_outline" data-name="filled outline"><path class="cls-1" d="M7.9,288V248l136,56-48,8Z"/><path class="cls-2" d="M263.9,243.7a47.89,47.89,0,0,0-42,24.8,32,32,0,1,0,0,46.4,48,48,0,1,0,42-71.2Z"/><path class="cls-3" d="M7.9,288l80,16L101,288.3a136.39,136.39,0,0,1,67.3-43.8,19.58,19.58,0,0,1,14.2,36.3h0a48.42,48.42,0,0,0-21.8,21.8l-.8,1.4h24V432H105.3a42,42,0,0,1-29.7-12.3L55.9,400l-48-16Z"/><path class="cls-3" d="M263.9,336h-80V304h80a16,16,0,0,1,0,32Z"/><path class="cls-3" d="M277.8,328a20.44,20.44,0,0,1-2.5,3.3A16.06,16.06,0,0,1,264,336H200v-8Z"/><path class="cls-3" d="M279.9,368h-96V336h96a16,16,0,0,1,0,32Z"/><path class="cls-3" d="M263.9,400h-80V368h80a16,16,0,0,1,0,32Z"/><path class="cls-3" d="M247.9,432h-64V400h64a16,16,0,0,1,0,32Z"/><path class="cls-1" d="M215.9,376a16,16,0,0,0-16,16,16,16,0,0,0-32,0v8a16,16,0,0,0-32,0v8a16,16,0,0,0-32,0v40a16,16,0,0,0,32,0v-8a16,16,0,0,0,32,0v-8a16,16,0,0,0,32,0v-8a16,16,0,0,0,32,0V392A16,16,0,0,0,215.9,376Z"/><path class="cls-4" d="M439.9,64h-64V22a14,14,0,0,1,14-14h36a14,14,0,0,1,14,14Z"/><path class="cls-4" d="M375.9,24h-72v.2L261.5,72l26.4,18.1,32-34.1h56Z"/><path class="cls-4" d="M391.9,64h32v64h-32Z"/><path class="cls-5" d="M391.9,64h32V80h-32Z"/><path class="cls-4" d="M367.9,128h80v32h-80Z"/><path class="cls-6" d="M367.9,160h80a23.94,23.94,0,0,1,24,24V400h-128V184A23.94,23.94,0,0,1,367.9,160Z"/><path class="cls-6" d="M254,161.4a17.84,17.84,0,0,0,25.2-24L263.9,112l-15.3,25.4A17.83,17.83,0,0,0,254,161.4Z"/><circle class="cls-7" cx="199.9" cy="200" r="16"/><circle class="cls-7" cx="127.9" cy="152" r="24"/><circle class="cls-7" cx="335.9" cy="408" r="24"/><circle class="cls-2" cx="335.9" cy="408" r="16"/><circle class="cls-2" cx="127.9" cy="152" r="16"/><circle class="cls-2" cx="199.9" cy="200" r="8"/><path class="cls-8" d="M286.5,291.7a7.87,7.87,0,0,1-7.5-5.3,15.93,15.93,0,0,0-20.4-9.7,15.06,15.06,0,0,0-5.3,3.2A8,8,0,1,1,242.6,268a32,32,0,0,1,45.2,2.5,31.21,31.21,0,0,1,6.3,10.7,8,8,0,0,1-4.9,10.2,12.41,12.41,0,0,1-2.7.3Z"/><path class="cls-9" d="M383.9,224h88V336h-88Z"/><path class="cls-10" d="M383.9,200h-8a8,8,0,0,1,0-16h8a8,8,0,0,1,0,16Z"/><path class="cls-10" d="M439.9,200h-24a8,8,0,0,1,0-16h24a8,8,0,0,1,0,16Z"/><path class="cls-10" d="M471.9,376h-72a8,8,0,0,1,0-16h72a8,8,0,0,1,0,16Z"/><path class="cls-10" d="M367.9,376h-24a8,8,0,0,1,0-16h24a8,8,0,0,1,0,16Z"/><path class="cls-5" d="M359.9,24h16V56h-16Z"/><path class="cls-1" d="M277.8,328a20.44,20.44,0,0,1-2.5,3.3A16.06,16.06,0,0,1,264,336H204a4,4,0,0,1,0-8Z"/><path class="cls-1" d="M293.8,360a20.44,20.44,0,0,1-2.5,3.3A16.06,16.06,0,0,1,280,368H204a4,4,0,0,1,0-8Z"/><path class="cls-1" d="M277.8,392a20.44,20.44,0,0,1-2.5,3.3A16.06,16.06,0,0,1,264,400H184v-8Z"/><path class="cls-1" d="M261.8,424a20.44,20.44,0,0,1-2.5,3.3A16.06,16.06,0,0,1,248,432H168v-8Z"/><path class="cls-3" d="M215.9,384a16,16,0,0,0-16,16,16,16,0,0,0-32,0v8a16,16,0,0,0-32,0v8a16,16,0,0,0-32,0v40a16,16,0,0,0,32,0v-8a16,16,0,0,0,32,0v-8a16,16,0,0,0,32,0v-8a16,16,0,0,0,32,0V400A16,16,0,0,0,215.9,384Z"/><path d="M5.4,391.6,51.6,407l18.3,18.4a50.06,50.06,0,0,0,24.2,13.4,11,11,0,0,0,1.8.2v17a24,24,0,0,0,44.2,12.9,23.87,23.87,0,0,0,32-8,23.87,23.87,0,0,0,32-8,24.06,24.06,0,0,0,32.7-9.1,18.42,18.42,0,0,0,1.7-3.8h9.4a23.94,23.94,0,0,0,22.3-32.8A24,24,0,0,0,287,377.7a18.29,18.29,0,0,0-.8-2.5,24,24,0,0,0,16.9-29.4,24.34,24.34,0,0,0-5.1-9.5,56,56,0,1,0-68-89,58,58,0,0,0-10,9.8,40.26,40.26,0,0,0-20-5.4,4.87,4.87,0,0,0-1.2.1c-.1-.3-.3-.6-.4-.9a27.56,27.56,0,0,0-32.2-14.2,142.53,142.53,0,0,0-63.3,37.7L10.8,240.5A8.12,8.12,0,0,0,.5,245.2,8.68,8.68,0,0,0,0,248V384a7.83,7.83,0,0,0,5.4,7.6ZM127.9,456a8,8,0,0,1-16,0V416a8,8,0,0,1,16,0Zm32-8a8,8,0,0,1-16,0V408a8,8,0,0,1,16,0Zm32-8a8,8,0,0,1-16,0V400a8,8,0,0,1,16,0Zm24,0a8,8,0,0,1-8-8V400a8,8,0,0,1,16,0v32A8,8,0,0,1,215.9,440Zm32-16h-8V408h8a8,8,0,0,1,0,16ZM199.8,272a21.34,21.34,0,0,0,1-4.2,23.61,23.61,0,0,1,15.5,6.5,8,8,0,0,0,11.3-.3,6.1,6.1,0,0,0,1.2-1.6,40,40,0,1,1,70,38.8,39.23,39.23,0,0,1-11.4,12.9,23.91,23.91,0,0,0-19.5-27.6,19.81,19.81,0,0,0-4.2-.3H174.8a41.75,41.75,0,0,1,11-8.1A28.37,28.37,0,0,0,199.8,272Zm-29.3-19.9a11.54,11.54,0,0,1,8.4,21.4,56.81,56.81,0,0,0-25.3,25.3l-.7,1.5a7.88,7.88,0,0,0,3.6,10.7,7.32,7.32,0,0,0,3.6.8h104a8,8,0,0,1,0,16h-56a8,8,0,1,0,0,16h72a8,8,0,0,1,0,16h-72a8,8,0,1,0,0,16h56a8,8,0,0,1,0,16H238.7a24,24,0,0,0-30.6-14.6,22.5,22.5,0,0,0-8,4.8,24,24,0,0,0-33.8,1.8,23.4,23.4,0,0,0-2.4,3.1,23.87,23.87,0,0,0-32,8A24.06,24.06,0,0,0,99.2,404a24.46,24.46,0,0,0-3.1,11.8v6.7a34.36,34.36,0,0,1-14.6-8.6L61.8,394.2a7.67,7.67,0,0,0-3.1-1.9L15.9,378.2V297.7l70.4,14.1a8,8,0,0,0,7.7-2.7l13.1-15.7a128.63,128.63,0,0,1,63.4-41.3ZM91.4,287.3l-6.6,7.9L15.9,281.4v-22Z"/><path d="M455.9,153V128a8,8,0,0,0-8-8h-16V72h8a8,8,0,0,0,8-8V22a22.06,22.06,0,0,0-22-22h-36a22.05,22.05,0,0,0-21.2,16H303.9a7.92,7.92,0,0,0-6.8,3.8L255.5,66.7a8,8,0,0,0,.7,11.3,5.55,5.55,0,0,0,.8.6l26.4,18.1a8.06,8.06,0,0,0,10.4-1.1L323.4,64h44.5a8,8,0,0,0,8,8h8v48h-16a8,8,0,0,0-8,8v25a32.09,32.09,0,0,0-24,31V376a32,32,0,1,0,32,32h104a8,8,0,0,0,8-8V184a32.09,32.09,0,0,0-24-31Zm8,175h-72V232h72Zm-80-306a6,6,0,0,1,6-6h36a6,6,0,0,1,6,6V56h-48Zm-64,26a7.94,7.94,0,0,0-5.8,2.5L286.8,79.6l-13.2-9.1,34-38.5h60.3V48Zm80,24h16v48h-16Zm-24,64h64v16h-64Zm-40,288a16,16,0,1,1,16-16A16,16,0,0,1,335.9,424Zm27.7-32a32,32,0,0,0-11.7-11.7V376h16a8,8,0,0,0,0-16h-16V184a16,16,0,0,1,16-16h80a16,16,0,0,1,16,16v32h-80a8,8,0,0,0-8,8V336a8,8,0,0,0,8,8h80v16h-64a8,8,0,0,0,0,16h64v16Z"/><path d="M249.6,168.1a25.81,25.81,0,0,0,36.5-34.7L270.8,108a8,8,0,0,0-11-2.7,7.75,7.75,0,0,0-2.7,2.7l-15.3,25.4A25.73,25.73,0,0,0,249.6,168.1Zm5.9-26.5,8.4-14,8.4,14a9.78,9.78,0,0,1-16.8,10,9.48,9.48,0,0,1,0-10Z"/><path d="M199.9,224a24,24,0,1,0-24-24A23.94,23.94,0,0,0,199.9,224Zm0-32a8,8,0,1,1-8,8A8,8,0,0,1,199.9,192Z"/><path d="M127.9,184a32,32,0,1,0-32-32A32,32,0,0,0,127.9,184Zm0-48a16,16,0,1,1-16,16A16,16,0,0,1,127.9,136Z"/><path d="M253.2,279.8a16,16,0,0,1,22.6,1.3,17.08,17.08,0,0,1,3.2,5.3,8,8,0,1,0,15.1-5.3h0a32.05,32.05,0,0,0-51.5-13.2,8,8,0,0,0,10.6,11.9Z"/><path d="M383.9,200a8,8,0,0,0,0-16h-8a8,8,0,0,0,0,16Z"/><path d="M415.9,200h24a8,8,0,0,0,0-16h-24a8,8,0,0,0,0,16Z"/></g></g></g></svg>