<svg width="84" height="46" viewBox="0 0 84 46" fill="none" xmlns="http://www.w3.org/2000/svg">
<path d="M47.2297 46.0001H36.8137C35.9273 46.0001 35.2865 45.8191 34.8913 45.4571C34.4961 45.0951 34.2981 44.5094 34.2971 43.7002V2.30036C34.2971 1.4911 34.4952 0.905455 34.8913 0.543419C35.2874 0.181384 35.9283 0.000366211 36.8137 0.000366211H48.0685C48.8123 0.000366211 49.4317 0.149866 49.921 0.447586C50.4104 0.745307 50.8648 1.23597 51.2842 1.91702L57.5757 12.3309C57.7425 12.6254 57.9416 12.9037 58.1699 13.1614C58.2529 13.2464 58.3555 13.3135 58.4704 13.3577C58.5853 13.4019 58.7095 13.4221 58.834 13.417H59.4631C59.5877 13.4221 59.7119 13.4019 59.8267 13.3577C59.9416 13.3135 60.0443 13.2464 60.1272 13.1614C60.3536 12.9024 60.5526 12.6243 60.7214 12.3309L66.943 1.91702C67.3625 1.23555 67.8169 0.745733 68.3062 0.447586C68.7955 0.14944 69.413 0.000366211 70.1587 0.000366211H81.4834C82.367 0.000366211 83.0078 0.181384 83.4058 0.543419C83.8001 0.906306 84 1.49153 84 2.30036V43.7002C84 44.5103 83.8001 45.0955 83.4058 45.4571C83.0116 45.8187 82.367 46.0001 81.4834 46.0001H70.7179C69.8315 46.0001 69.1907 45.8191 68.7955 45.4571C68.4003 45.0951 68.2023 44.5094 68.2013 43.7002V21.2114L64.0769 28.1752C63.6575 28.8993 63.1565 29.4211 62.5739 29.7405C61.9914 30.0599 61.2574 30.2197 60.3719 30.2197H57.5757C56.6893 30.2197 55.9553 30.0599 55.3737 29.7405C54.7893 29.4211 54.2901 28.8997 53.8707 28.1752L49.7463 21.2114V43.7002C49.7463 44.5103 49.5463 45.0955 49.1521 45.4571C48.7578 45.8187 48.1133 46.0001 47.2297 46.0001Z" fill="#FF0000"/>
<path d="M38.648 11.7877C39.0423 11.4261 39.2422 10.8409 39.2422 10.0308V2.30025C39.2422 1.49142 39.0423 0.906205 38.648 0.543317C38.2538 0.18043 37.6302 0.00793104 36.7704 0.00026441C35.9105 -0.00740222 35.28 0.186819 34.8927 0.54204C34.5054 0.89726 34.2985 1.49015 34.2985 2.29898V12.3308H36.727C37.6097 12.3308 38.25 12.1497 38.648 11.7877Z" fill="#B0151D"/>
<path d="M43.7861 43.7V23.9585C43.7861 23.1496 43.5862 22.5644 43.1919 22.2015C42.7976 21.8387 42.1531 21.6585 41.2695 21.6585H34.2971V43.7C34.2971 44.5102 34.4952 45.0958 34.8913 45.457C35.2874 45.8182 35.9283 45.9992 36.8137 46H41.2695C42.1531 46 42.7939 45.819 43.1919 45.457C43.5862 45.0954 43.7861 44.5102 43.7861 43.7Z" fill="#B0151D"/>
<path d="M39.2171 46.0001H17.1968C11.3713 46.0001 7.04882 44.9353 4.22929 42.8057C1.40976 40.6761 0 37.3965 0 32.9669V13.0336C0 8.60403 1.40976 5.32442 4.22929 3.1948C7.04882 1.06518 11.3713 0.000366211 17.1968 0.000366211H34.6732C35.5587 0.000366211 36.1995 0.181384 36.5956 0.543419C36.9917 0.905455 37.1898 1.4911 37.1898 2.30036V10.0309C37.1898 10.841 36.9917 11.4266 36.5956 11.7878C36.1995 12.149 35.5587 12.33 34.6732 12.3309H20.1328C18.6872 12.3309 17.6153 12.5971 16.9172 13.1295C16.219 13.6619 15.8695 14.4605 15.8686 15.5253V30.7947C15.8686 31.8603 16.1365 32.6483 16.6725 33.1585C17.2084 33.6688 18.0124 33.9244 19.0842 33.9252H25.8651V23.9586C25.8651 23.1493 26.0632 22.5637 26.4593 22.2017C26.8554 21.8396 27.4962 21.6586 28.3817 21.6586H39.2171C40.1025 21.6586 40.7433 21.8396 41.1395 22.2017C41.5356 22.5637 41.7337 23.1493 41.7337 23.9586V43.7002C41.7337 44.5103 41.5356 45.0959 41.1395 45.4571C40.7433 45.8183 40.1025 45.9993 39.2171 46.0001Z" fill="#005BFF"/>
</svg>
