<svg width="23" height="23" viewBox="0 0 23 23" fill="none" xmlns="http://www.w3.org/2000/svg">
<g clip-path="url(#clip0)">
<path d="M22.8596 11.1612L15.6721 3.97371C15.4849 3.78652 15.1817 3.78652 14.9946 3.97371C14.8074 4.16089 14.8074 4.46412 14.9946 4.65126L21.3641 11.0208H0.479182C0.214322 11.0208 0 11.2351 0 11.5C0 11.7649 0.214322 11.9792 0.479182 11.9792H21.3641L14.9946 18.3487C14.8074 18.5359 14.8074 18.8391 14.9946 19.0263C15.0881 19.1198 15.2108 19.1666 15.3334 19.1666C15.456 19.1666 15.5785 19.1198 15.6722 19.0263L22.8597 11.8388C23.0468 11.6516 23.0468 11.3484 22.8596 11.1612Z" fill="white"/>
</g>
<defs>
<clipPath id="clip0">
<rect width="23" height="23" fill="white"/>
</clipPath>
</defs>
</svg>
