<svg width="23" height="38" viewBox="0 0 23 38" fill="none" xmlns="http://www.w3.org/2000/svg">
<path d="M1.87592 0.607395L0.622524 1.85214C0.23109 2.24388 0.0154461 2.76507 0.0154461 3.3221C0.0154461 3.87882 0.23109 4.40063 0.622524 4.79237L14.8223 18.9915L0.606769 33.207C0.215335 33.5981 -1.69602e-07 34.12 -1.45267e-07 34.6767C-1.20932e-07 35.2334 0.215335 35.7555 0.606769 36.1469L1.85244 37.392C2.66249 38.2027 3.982 38.2027 4.79206 37.392L21.7782 20.4667C22.1693 20.0756 22.4449 19.5544 22.4449 18.9927L22.4449 18.9863C22.4449 18.4292 22.169 17.908 21.7782 17.5169L4.83809 0.607395C4.44696 0.215652 3.91001 0.000625439 3.35329 7.48282e-06C2.79626 7.50717e-06 2.26673 0.215652 1.87592 0.607395Z" fill="white"/>
</svg>
