<svg width="23" height="38" viewBox="0 0 23 38" fill="none" xmlns="http://www.w3.org/2000/svg">
<path d="M20.569 37.3926L21.8224 36.1479C22.2138 35.7561 22.4294 35.2349 22.4294 34.6779C22.4294 34.1212 22.2138 33.5994 21.8224 33.2076L7.6226 19.0085L21.8381 4.79298C22.2295 4.40186 22.4449 3.88005 22.4449 3.32333C22.4449 2.76661 22.2295 2.24449 21.8381 1.85306L20.5924 0.608005C19.7824 -0.202668 18.4629 -0.202668 17.6528 0.608005L0.666693 17.5333C0.275568 17.9244 -1.31315e-05 18.4456 -1.31248e-05 19.0073L-1.31247e-05 19.0137C-1.31181e-05 19.5708 0.275877 20.092 0.666693 20.4831L17.6068 37.3926C17.9979 37.7843 18.5349 37.9994 19.0916 38C19.6486 38 20.1782 37.7843 20.569 37.3926Z" fill="white"/>
</svg>
