<svg width="29" height="29" viewBox="0 0 29 29" fill="none" xmlns="http://www.w3.org/2000/svg">
<path d="M26.9261 0H1.57301C0.704851 0 0 0.703443 0 1.57301V26.9261C0 27.7956 0.704851 28.5 1.57301 28.5H15.2223V17.4631H11.5085V13.1613H15.2223V9.98898C15.2223 6.30846 17.4697 4.30325 20.7537 4.30325C22.3281 4.30325 23.6782 4.42104 24.0719 4.47219V8.3193L21.7941 8.32024C20.0085 8.32024 19.664 9.16916 19.664 10.4141V13.1599H23.9241L23.3671 17.4612H19.6636V28.4986H26.9256C27.7947 28.4986 28.5 27.7933 28.5 26.9261V1.57207C28.4995 0.703443 27.7951 0 26.9261 0Z" fill="white"/>
</svg>
