<svg width="29" height="29" viewBox="0 0 29 29" fill="none" xmlns="http://www.w3.org/2000/svg">
<g clip-path="url(#clip0)">
<path d="M6.58512 12.8125H7.5071C7.5071 12.8125 7.85314 12.8153 7.85314 13.2137V17.5677C7.85314 17.5677 7.87445 18.0367 7.48556 18.0367H6.54205C6.54205 18.0367 6.2617 18.0194 6.2617 17.6336V13.1483C6.2617 13.1483 6.26278 12.8127 6.58512 12.8127V12.8125ZM7.04708 11.7295C6.54444 11.7295 6.2095 11.3662 6.21994 10.9174C6.2095 10.4473 6.54444 10.0946 7.05752 10.0946C7.5706 10.0946 7.89511 10.4473 7.90555 10.9174C7.90555 11.3662 7.57039 11.7295 7.04687 11.7295H7.04708ZM16.9207 18.0367H16.0629C15.6555 18.0367 15.7373 17.4366 15.7373 17.4366V15.1949C15.7373 14.4364 15.4965 13.9983 14.9834 13.9983C14.6169 13.9983 14.3553 14.2548 14.2504 14.5647C14.2087 14.6822 14.1876 14.853 14.1876 14.9813V17.524C14.1876 17.524 14.1926 18.0367 13.7469 18.0367H13.0394C13.0394 18.0367 12.6379 18.0054 12.6379 17.4803V15.1092C12.6379 14.4469 12.4076 13.9981 11.9049 13.9981C11.4967 13.9981 11.2557 14.3187 11.1615 14.5857C11.1091 14.714 11.0987 14.8635 11.0987 14.9917V17.4803C11.0987 17.4803 11.1539 18.0367 10.7448 18.0367H10.0586C9.54898 18.0367 9.54898 17.4803 9.54898 17.4803V14.479C9.54898 13.9697 9.5207 13.1272 9.5207 13.1272C9.5207 13.1272 9.51026 12.8125 9.84412 12.8125H10.509C10.8231 12.8125 10.8801 13.1257 10.8801 13.1257L10.9207 13.5176H10.9521C11.172 13.1865 11.6222 12.6949 12.5017 12.6949C13.1614 12.6949 13.6849 13.0367 13.9048 13.5818H13.9257C14.1143 13.3147 14.3446 13.1011 14.5854 12.9515C14.8681 12.7807 15.1822 12.6951 15.5593 12.6951C16.5435 12.6951 17.2869 13.4003 17.2869 14.9602V17.4808C17.2869 17.9999 16.9207 18.0371 16.9207 18.0371V18.0367ZM21.3703 13.8486C20.606 13.8486 20.323 14.6498 20.323 15.4191C20.323 16.3164 20.6895 16.9897 21.3703 16.9897C21.988 16.9897 22.3858 16.3592 22.3858 15.4191C22.3858 14.6392 22.0926 13.8486 21.3703 13.8486V13.8486ZM21.3283 18.154C19.831 18.154 18.6794 17.1498 18.6794 15.4617C18.6794 13.7736 19.7684 12.6947 21.412 12.6947C22.9828 12.6947 24.0298 13.7951 24.0298 15.3657C24.0298 17.278 22.7001 18.154 21.3285 18.154H21.3283ZM14.7898 2.12177C8.04214 2.12177 2.57204 7.70314 2.57204 14.5884C2.57204 16.9582 3.21997 19.1733 4.34488 21.0597C4.34488 21.0597 5.1444 23.1786 3.09187 24.756C4.37707 25.1981 7.09428 24.3854 7.23326 24.3854C9.31234 26.0573 11.9369 27.055 14.7898 27.055C21.5373 27.055 27.0074 21.4734 27.0074 14.5884C27.0074 7.70336 21.5373 2.12177 14.7898 2.12177V2.12177ZM14.7898 29C11.8175 29 9.0583 28.069 6.77695 26.4769C5.70098 27.0544 3.28087 27.1826 2.22513 27.055C0.69046 26.8696 -0.919685 25.5726 0.630865 24.311C3.03205 22.3579 2.38739 21.5841 2.38739 21.5841C1.23551 19.4892 0.578883 17.0729 0.578883 14.5001C0.578883 6.49174 6.94138 0 14.7896 0C22.6378 0 29.0003 6.49174 29.0003 14.5001C29.0003 22.5083 22.6378 29.0002 14.7896 29.0002L14.7898 29Z" fill="white"/>
</g>
<defs>
<clipPath id="clip0">
<rect width="29" height="29" fill="white"/>
</clipPath>
</defs>
</svg>
