<svg width="29" height="29" viewBox="0 0 29 29" fill="none" xmlns="http://www.w3.org/2000/svg">
<path d="M0 21.5101V7.00006C0 7.00006 0 6.93006 0 6.90006C0 6.62006 0.06 6.33006 0.11 6.06006C0.421851 4.35555 1.32276 2.81482 2.65528 1.70713C3.9878 0.599431 5.6672 -0.00478775 7.4 5.70355e-05H21.07C21.5365 -0.00180091 22.002 0.0417376 22.46 0.130057C24.1425 0.458071 25.6595 1.35849 26.7532 2.67831C27.847 3.99813 28.4501 5.65595 28.46 7.37006C28.46 11.9367 28.46 16.5034 28.46 21.0701C28.4643 22.871 27.8099 24.6114 26.62 25.9634C25.4301 27.3154 23.7869 28.1855 22 28.4101L21.45 28.4701H6.91C5.80486 28.403 4.73019 28.0813 3.77 27.5301C2.78564 26.9849 1.94104 26.219 1.30253 25.2925C0.664025 24.3659 0.248984 23.304 0.09 22.1901C0.05 22.0001 0 21.7401 0 21.5101ZM2.44 14.2401V21.0801C2.43975 21.3922 2.46989 21.7037 2.53 22.0101C2.75016 23.1464 3.36233 24.1693 4.2597 24.9004C5.15706 25.6314 6.28263 26.0242 7.44 26.0101H21.05C21.3663 26.0369 21.6844 26.0335 22 26.0001C23.1404 25.7818 24.1693 25.1734 24.9101 24.2793C25.6509 23.3852 26.0575 22.2612 26.06 21.1001V7.43006C26.0549 7.1658 26.0349 6.90205 26 6.64006C25.8113 5.47564 25.217 4.41543 24.3222 3.64685C23.4273 2.87827 22.2896 2.45082 21.11 2.44006H7.38C6.96871 2.43969 6.55895 2.49007 6.16 2.59006C5.0958 2.87188 4.15437 3.49704 3.48175 4.36855C2.80914 5.24005 2.44295 6.30918 2.44 7.41006V14.2401Z" fill="white"/>
<path d="M7.16995 14.2598C7.16601 12.855 7.57949 11.4807 8.35792 10.3112C9.13635 9.14181 10.2446 8.22999 11.5421 7.69148C12.8397 7.15298 14.2679 7.01207 15.6456 7.28664C17.0233 7.5612 18.2885 8.23886 19.2804 9.23362C20.2724 10.2284 20.9464 11.4954 21.2171 12.8739C21.4877 14.2524 21.3428 15.6802 20.8006 16.9762C20.2584 18.2722 19.3435 19.3779 18.1719 20.153C17.0002 20.9281 15.6247 21.3377 14.22 21.3298C12.3492 21.3219 10.5575 20.5738 9.23654 19.2491C7.91555 17.9243 7.17258 16.1306 7.16995 14.2598ZM9.31995 14.2598C9.31995 15.2349 9.60909 16.188 10.1508 16.9988C10.6925 17.8095 11.4625 18.4414 12.3633 18.8145C13.2642 19.1877 14.2554 19.2853 15.2117 19.0951C16.1681 18.9048 17.0465 18.4353 17.736 17.7458C18.4255 17.0564 18.895 16.1779 19.0852 15.2216C19.2754 14.2653 19.1778 13.274 18.8047 12.3732C18.4315 11.4723 17.7996 10.7024 16.9889 10.1606C16.1782 9.61893 15.225 9.32979 14.2499 9.32979C12.9458 9.33504 11.6964 9.85476 10.7732 10.776C9.8501 11.6973 9.32784 12.9456 9.31995 14.2498V14.2598Z" fill="white"/>
<path d="M20.48 6.37023C20.48 5.93793 20.6517 5.52333 20.9574 5.21765C21.2631 4.91197 21.6777 4.74023 22.11 4.74023C22.5423 4.74023 22.9569 4.91197 23.2626 5.21765C23.5682 5.52333 23.74 5.93793 23.74 6.37023C23.74 6.80254 23.5682 7.21713 23.2626 7.52282C22.9569 7.8285 22.5423 8.00023 22.11 8.00023C21.6777 8.00023 21.2631 7.8285 20.9574 7.52282C20.6517 7.21713 20.48 6.80254 20.48 6.37023Z" fill="white"/>
</svg>
