<svg width="84" height="46" viewBox="0 0 84 46" fill="none" xmlns="http://www.w3.org/2000/svg">
<g clip-path="url(#clip0)">
<path d="M83.4494 0.543056C83.0827 0.182722 82.488 0 81.6679 0H71.1732C70.4826 0 69.91 0.150778 69.4565 0.447222C69.003 0.743667 68.5819 1.23689 68.1933 1.91667L62.4277 12.3306C62.2725 12.6247 62.088 12.9029 61.877 13.1611C61.8001 13.2461 61.705 13.3132 61.5986 13.3574C61.4921 13.4016 61.377 13.4218 61.2616 13.4167H60.6786C60.5632 13.4218 60.4481 13.4016 60.3416 13.3574C60.2351 13.3132 60.14 13.2461 60.0631 13.1611C59.8521 12.9029 59.6677 12.6247 59.5125 12.3306L53.6821 1.91667C53.2934 1.23519 52.8723 0.74537 52.4189 0.447222C51.9654 0.150778 51.3927 0 50.7022 0H40.2723C39.4521 0 38.8574 0.182722 38.4908 0.543056C38.1241 0.903389 37.9401 1.49244 37.9401 2.3V43.7C37.9401 44.5101 38.1237 45.0958 38.4908 45.4569C38.8579 45.8181 39.4517 45.9992 40.2723 46H49.9248C50.7453 46 51.3392 45.819 51.7063 45.4569C52.0734 45.0949 52.2569 44.5093 52.2569 43.7V21.2111L56.079 28.175C56.4677 28.9008 56.9316 29.4208 57.4719 29.7403C58.0121 30.0597 58.6923 30.2194 59.5125 30.2194H62.1038C62.9243 30.2194 63.6045 30.0597 64.1444 29.7403C64.6847 29.4208 65.1485 28.9008 65.5372 28.175L69.3593 21.2111V43.7C69.3593 44.5101 69.5429 45.0958 69.91 45.4569C70.2771 45.8181 70.8709 45.9992 71.6915 46H81.6679C82.4876 46 83.0814 45.819 83.4494 45.4569C83.8173 45.0949 84.0009 44.5093 84 43.7V2.3C84 1.49244 83.8165 0.906796 83.4494 0.543056Z" fill="#FF0000"/>
<path d="M48.7807 0.368V45.632C48.7807 45.7598 48.7768 45.8824 48.7691 46H41.9566C41.1369 46 40.5431 45.819 40.1751 45.4569C39.8071 45.0949 39.6236 44.5093 39.6245 43.7V2.3C39.6245 1.49244 39.808 0.906796 40.1751 0.543056C40.5418 0.182722 41.1365 0 41.9566 0H48.7678C48.7768 0.117556 48.7807 0.240222 48.7807 0.368Z" fill="#B0151D"/>
<path d="M11.9846 46H2.33215C1.51071 46 0.916879 45.819 0.550645 45.4569C0.184412 45.0949 0.000863758 44.5093 0 43.7V2.3C0 1.49244 0.183549 0.906796 0.550645 0.543056C0.917311 0.182722 1.51071 0 2.33215 0H12.762C13.4526 0 14.0253 0.150778 14.4787 0.447222C14.9322 0.743667 15.3533 1.23689 15.742 1.91667L21.5723 12.3306C21.7271 12.625 21.9116 12.9032 22.123 13.1611C22.1999 13.2461 22.295 13.3132 22.4015 13.3574C22.5079 13.4016 22.623 13.4218 22.7384 13.4167H23.3215C23.4368 13.4218 23.552 13.4016 23.6584 13.3574C23.7649 13.3132 23.86 13.2461 23.9369 13.1611C24.1474 12.9026 24.3319 12.6244 24.4875 12.3306L30.2531 1.91667C30.6418 1.23519 31.0629 0.74537 31.5164 0.447222C31.9698 0.150778 32.5412 0 33.2331 0H43.7277C44.5479 0 45.1413 0.182722 45.5092 0.543056C45.8772 0.903389 46.0599 1.49244 46.0599 2.3V43.7C46.0599 44.5101 45.8763 45.0958 45.5092 45.4569C45.1421 45.8181 44.5483 45.9992 43.7277 46H33.7513C32.9299 46 32.3361 45.819 31.9698 45.4569C31.6036 45.0949 31.42 44.5093 31.4192 43.7V21.2111L27.5971 28.175C27.2084 28.9008 26.7432 29.4208 26.2042 29.7403C25.6653 30.0597 24.9838 30.2194 24.1636 30.2194H21.5723C20.7509 30.2194 20.0707 30.0597 19.5317 29.7403C18.9914 29.4208 18.5276 28.9008 18.1389 28.175L14.3168 21.2111V43.7C14.3168 44.5101 14.1332 45.0958 13.7661 45.4569C13.399 45.8181 12.8052 45.9992 11.9846 46Z" fill="white"/>
</g>
<defs>
<clipPath id="clip0">
<rect width="84" height="46" fill="white"/>
</clipPath>
</defs>
</svg>
