<svg width="200" height="110" viewBox="0 0 200 110" fill="none" xmlns="http://www.w3.org/2000/svg">
<path d="M112.452 109.999H87.6517C85.5412 109.999 84.0155 109.566 83.0745 108.701C82.1336 107.835 81.662 106.435 81.6598 104.499V5.50043C81.6598 3.56527 82.1314 2.16482 83.0745 1.29909C84.0177 0.433354 85.5434 0.000488281 87.6517 0.000488281H114.449C116.22 0.000488281 117.694 0.357984 118.86 1.06992C120.025 1.78186 121.107 2.95518 122.105 4.58377L137.085 29.4863C137.482 30.1906 137.956 30.856 138.5 31.4724C138.697 31.6757 138.942 31.836 139.215 31.9417C139.489 32.0474 139.784 32.0958 140.081 32.0835H141.579C141.875 32.0958 142.171 32.0474 142.445 31.9417C142.718 31.836 142.963 31.6757 143.16 31.4724C143.699 30.8529 144.173 30.1879 144.575 29.4863L159.388 4.58377C160.387 2.95416 161.469 1.78288 162.634 1.06992C163.799 0.356966 165.269 0.000488281 167.045 0.000488281H194.008C196.112 0.000488281 197.638 0.433354 198.585 1.29909C199.524 2.16685 200 3.56628 200 5.50043V104.499C200 106.437 199.524 107.836 198.585 108.701C197.647 109.565 196.112 109.999 194.008 109.999H168.376C166.266 109.999 164.74 109.566 163.799 108.701C162.858 107.835 162.386 106.435 162.384 104.499V50.7222L152.564 67.3748C151.565 69.1062 150.373 70.3539 148.986 71.1178C147.599 71.8817 145.851 72.2636 143.743 72.2636H137.085C134.974 72.2636 133.227 71.8817 131.842 71.1178C130.451 70.3539 129.262 69.1073 128.264 67.3748L118.443 50.7222V104.499C118.443 106.437 117.967 107.836 117.029 108.701C116.09 109.565 114.555 109.999 112.452 109.999Z" fill="#FF0000"/>
<path d="M92.0191 28.1877C92.9578 27.323 93.4339 25.9236 93.4339 23.9864V5.50046C93.4339 3.56632 92.9578 2.16689 92.0191 1.29912C91.0804 0.431352 89.5957 0.018856 87.5485 0.000522818C85.5012 -0.0178103 83.9999 0.446629 83.0778 1.29606C82.1558 2.1455 81.6631 3.56326 81.6631 5.49741V29.4863H87.4453C89.5469 29.4863 91.0715 29.0535 92.0191 28.1877Z" fill="#B0151D"/>
<path d="M104.253 104.5V57.2917C104.253 55.3575 103.777 53.9581 102.838 53.0903C101.899 52.2226 100.365 51.7917 98.2607 51.7917H81.6598V104.5C81.6598 106.437 82.1314 107.837 83.0745 108.701C84.0177 109.565 85.5434 109.997 87.6517 109.999H98.2607C100.365 109.999 101.89 109.567 102.838 108.701C103.777 107.836 104.253 106.437 104.253 104.5Z" fill="#B0151D"/>
<path d="M93.3739 109.999H40.9447C27.0746 109.999 16.7829 107.453 10.0697 102.36C3.35658 97.2677 0 89.4252 0 78.8327V31.1666C0 20.5741 3.35658 12.7316 10.0697 7.63905C16.7829 2.54651 27.0746 0.000244141 40.9447 0.000244141H82.5552C84.6635 0.000244141 86.1892 0.43311 87.1324 1.29884C88.0755 2.16457 88.5471 3.56502 88.5471 5.50019V23.9861C88.5471 25.9233 88.0755 27.3237 87.1324 28.1874C86.1892 29.0511 84.6635 29.484 82.5552 29.486H47.9353C44.4933 29.486 41.9412 30.1226 40.279 31.3957C38.6168 32.6689 37.7845 34.5786 37.7823 37.1248V73.6383C37.7823 76.1867 38.4204 78.0709 39.6964 79.2911C40.9725 80.5112 42.8865 81.1223 45.4387 81.1244H61.5835V57.2913C61.5835 55.3561 62.0551 53.9557 62.9983 53.09C63.9415 52.2242 65.4672 51.7914 67.5754 51.7914H93.3739C95.4822 51.7914 97.0079 52.2242 97.9511 53.09C98.8943 53.9557 99.3659 55.3561 99.3659 57.2913V104.499C99.3659 106.436 98.8943 107.837 97.9511 108.7C97.0079 109.564 95.4822 109.997 93.3739 109.999Z" fill="white"/>
</svg>
